<?xml version="1.0" standalone="no"?>
<!DOCTYPE svg PUBLIC "-//W3C//DTD SVG 20010904//EN"
 "http://www.w3.org/TR/2001/REC-SVG-20010904/DTD/svg10.dtd">
<svg version="1.0" xmlns="http://www.w3.org/2000/svg"
 width="500.000000pt" height="500.000000pt" viewBox="0 0 500.000000 500.000000"
 preserveAspectRatio="xMidYMid meet">

<g transform="translate(0.000000,500.000000) scale(0.100000,-0.100000)"
fill="#000000" stroke="none">
<path d="M2440 4589 c-13 -6 -32 -17 -41 -25 -15 -13 -20 -13 -50 5 -55 34
-123 24 -161 -24 l-19 -24 -37 19 c-20 11 -45 20 -55 20 -34 0 -87 -29 -104
-58 -17 -27 -20 -28 -48 -16 -16 7 -40 13 -53 14 -37 0 -99 -37 -113 -69 -11
-23 -17 -28 -30 -20 -10 5 -36 9 -58 9 -46 0 -91 -32 -111 -79 -11 -27 -14
-29 -41 -19 -55 19 -149 -39 -149 -93 0 -16 -7 -19 -42 -19 -24 0 -54 -6 -68
-13 -31 -16 -70 -73 -70 -104 0 -20 -4 -23 -20 -18 -11 3 -39 -3 -64 -14 -49
-21 -76 -61 -76 -111 0 -28 -3 -30 -34 -30 -62 0 -125 -79 -110 -137 4 -14 -6
-21 -43 -33 -58 -18 -86 -60 -85 -125 0 -37 -3 -44 -22 -49 -64 -16 -105 -90
-87 -154 8 -25 7 -32 -4 -32 -8 0 -30 -14 -49 -31 -40 -34 -54 -82 -39 -132 8
-30 6 -35 -30 -67 -46 -42 -59 -98 -33 -148 15 -30 15 -32 -4 -42 -54 -29 -77
-126 -41 -171 19 -24 19 -24 -10 -57 -24 -27 -29 -41 -29 -86 0 -37 6 -61 19
-77 18 -24 18 -25 0 -47 -39 -49 -33 -157 11 -184 18 -12 18 -12 -1 -36 -13
-17 -19 -41 -19 -78 0 -47 4 -57 33 -86 l32 -32 -19 -39 c-16 -33 -17 -44 -7
-78 7 -23 25 -50 45 -66 29 -23 33 -30 25 -50 -24 -64 -1 -142 48 -162 27 -11
28 -15 28 -76 0 -57 3 -67 30 -95 16 -17 39 -33 51 -36 19 -5 21 -11 17 -45
-3 -21 0 -52 7 -69 13 -31 65 -70 94 -70 12 0 16 -9 16 -34 0 -70 46 -131 106
-142 28 -5 32 -10 37 -46 8 -58 51 -99 111 -105 45 -5 46 -6 46 -40 0 -26 8
-43 34 -69 28 -28 41 -34 78 -34 44 0 45 -1 57 -40 17 -59 75 -95 136 -87 36
5 45 4 45 -9 0 -66 82 -112 163 -91 21 6 27 4 27 -9 0 -9 15 -31 34 -50 29
-29 41 -34 81 -34 25 0 54 4 64 9 14 8 21 4 34 -18 18 -31 71 -61 106 -61 12
0 38 7 59 15 27 12 38 13 41 4 7 -23 41 -48 78 -58 33 -9 44 -8 83 12 l45 22
27 -27 c22 -23 35 -28 75 -28 31 0 60 7 82 21 32 19 34 19 53 2 15 -13 36 -18
85 -18 58 0 67 3 86 26 l22 26 30 -18 c55 -34 155 -15 171 33 7 22 12 22 53 2
47 -23 96 -11 143 35 24 25 41 35 50 30 7 -5 33 -9 56 -9 52 0 94 26 112 69
11 28 14 29 63 24 43 -4 58 -1 87 19 21 14 38 36 44 56 9 31 12 33 42 27 60
-11 134 37 148 98 6 23 11 27 44 27 64 0 121 52 122 111 0 23 5 27 40 32 23 3
52 13 66 22 28 18 54 71 54 110 0 20 5 25 26 25 58 0 122 82 110 140 -4 24 -1
29 21 35 68 17 112 82 98 145 -6 25 -3 31 18 39 30 12 75 64 83 98 4 14 2 40
-4 59 -10 32 -9 34 27 51 48 24 68 78 52 141 -11 42 -11 43 29 81 34 32 40 44
40 80 0 23 -8 53 -17 68 -16 24 -16 26 3 42 56 46 69 111 34 169 l-21 33 26
30 c19 23 25 42 25 75 0 47 -23 104 -41 104 -6 0 -1 12 10 26 42 53 35 143
-13 182 -23 18 -23 18 -5 41 25 31 25 97 -1 139 -11 17 -23 32 -27 32 -5 0
-14 4 -22 9 -11 7 -10 13 4 35 27 41 16 113 -23 147 -16 15 -35 28 -42 31 -10
3 -10 9 -1 25 29 55 -3 145 -60 166 -28 11 -29 14 -23 53 10 71 -41 144 -101
144 -12 0 -16 8 -14 33 5 83 -26 133 -91 143 -36 6 -38 8 -34 38 10 61 -59
136 -123 136 -18 0 -23 6 -23 28 0 61 -64 122 -128 122 -25 0 -30 5 -36 31 -3
17 -21 46 -40 65 -29 29 -41 34 -79 34 -44 0 -46 2 -67 44 -26 54 -74 81 -131
73 -35 -5 -40 -2 -58 28 -35 59 -97 84 -158 62 -18 -7 -25 -3 -37 21 -27 52
-111 77 -166 49 -23 -12 -26 -11 -43 16 -17 28 -70 57 -105 57 -10 0 -35 -9
-55 -19 l-38 -19 -15 24 c-32 48 -141 57 -179 14 -18 -20 -18 -20 -38 0 -35
38 -94 50 -147 29z m282 -204 c286 -37 511 -113 742 -249 459 -270 801 -751
895 -1256 54 -293 54 -466 1 -755 -47 -250 -171 -535 -323 -737 l-50 -67 -38
22 c-22 12 -39 26 -39 31 0 4 13 25 29 45 82 103 208 335 258 476 29 80 73
273 89 385 38 271 -8 635 -113 888 -149 361 -377 639 -694 848 -166 108 -339
184 -536 233 -181 45 -263 55 -453 55 -365 -1 -683 -97 -995 -302 -184 -121
-376 -313 -497 -497 -146 -223 -235 -449 -285 -725 -20 -116 -23 -408 -4 -525
17 -106 66 -301 95 -379 59 -155 165 -348 259 -469 16 -21 28 -39 26 -41 -2
-1 -20 -12 -41 -24 l-36 -22 -47 62 c-276 367 -410 882 -350 1345 46 350 169
654 378 929 397 525 1083 814 1729 729z m55 -151 c186 -26 414 -106 587 -205
410 -235 719 -640 835 -1095 70 -273 64 -654 -14 -911 -73 -240 -167 -422
-321 -621 -1 -2 -11 1 -23 7 -20 11 -20 11 4 48 26 37 32 90 15 123 -5 10 -26
28 -46 41 l-36 22 37 13 c40 13 125 89 125 111 0 20 -107 16 -155 -6 -22 -10
-51 -30 -64 -45 -31 -33 -56 -35 -46 -3 26 78 14 169 -29 222 l-24 30 -21 -45
c-24 -52 -26 -109 -6 -163 11 -34 11 -38 -2 -33 -8 3 -19 6 -24 6 -4 0 -16 14
-25 32 -15 29 -18 30 -29 14 -12 -16 -19 -15 -114 14 -56 17 -142 40 -192 50
-50 10 -93 21 -95 23 -7 6 53 161 100 259 37 78 42 94 29 103 -12 9 -12 16 -3
36 9 19 19 25 45 25 36 0 70 24 81 56 4 15 -4 30 -30 57 -20 21 -44 60 -55 92
-10 31 -40 84 -66 117 l-47 60 11 55 c19 88 -14 198 -70 238 -36 26 -38 16 -2
-17 14 -13 23 -27 20 -30 -3 -3 -19 9 -35 27 -22 25 -28 39 -22 54 24 65 17
177 -10 160 -5 -3 -15 5 -21 19 -7 14 -16 23 -22 19 -6 -3 -7 -1 -4 5 9 13 -2
42 -15 42 -6 0 -17 8 -25 18 -9 10 -12 11 -7 2 4 -8 14 -23 22 -33 13 -14 13
-23 2 -56 -12 -39 -7 -67 11 -56 13 9 11 -9 -3 -25 -11 -12 -10 -12 3 -2 9 6
19 8 24 4 4 -4 2 3 -4 16 -7 12 -16 20 -21 17 -6 -3 -7 1 -4 9 3 9 10 14 14
11 5 -3 6 4 3 15 -3 11 0 20 6 20 6 0 14 -14 18 -30 6 -34 23 -51 23 -24 0 10
2 15 5 12 8 -8 -7 -68 -16 -62 -4 2 -20 -18 -34 -46 -14 -27 -30 -50 -36 -50
-6 0 -1 13 11 30 23 33 39 88 17 59 -7 -8 -27 -33 -44 -54 -34 -41 -45 -37
-16 5 l17 25 -22 -19 c-31 -27 -27 -8 5 26 30 31 39 60 17 51 -7 -3 -23 -25
-35 -49 -24 -48 -65 -91 -76 -81 -3 4 3 17 15 30 12 13 22 27 22 31 0 5 -21
-15 -47 -44 -27 -31 -49 -47 -53 -40 -4 7 -13 4 -24 -9 -22 -24 -45 -9 -38 26
5 27 -25 44 -39 22 -13 -20 -11 -27 10 -45 17 -15 17 -18 3 -35 -9 -11 -21
-19 -27 -19 -5 0 -4 4 3 9 18 11 15 24 -8 33 -10 4 -24 16 -29 27 -9 16 -7 25
13 46 14 15 27 32 30 38 3 8 10 5 20 -7 13 -16 18 -17 31 -6 8 7 15 19 15 26
0 12 -4 12 -20 2 -22 -14 -36 -6 -24 14 4 7 9 19 10 28 2 8 6 33 9 55 9 54 -9
118 -46 160 -29 33 -30 35 -13 59 9 15 22 26 28 26 6 0 12 8 13 18 0 9 17 53
36 97 41 93 70 213 54 233 -22 28 -37 13 -37 -40 -1 -117 -56 -274 -112 -319
-18 -14 -23 -14 -57 3 -62 31 -130 34 -179 9 -43 -22 -62 -50 -102 -151 -20
-49 -20 -53 -3 -81 14 -24 15 -32 5 -38 -9 -5 -11 -20 -6 -49 5 -30 3 -42 -6
-42 -8 0 -10 8 -6 26 5 17 3 23 -4 19 -5 -3 -15 6 -20 22 -6 15 -17 42 -25 58
-11 24 -15 26 -15 10 0 -11 -7 -29 -15 -39 -8 -11 -14 -34 -14 -50 2 -31 2
-31 6 -3 3 16 9 25 15 21 7 -4 8 -2 4 4 -4 7 -2 20 3 29 9 16 10 16 11 -4 0
-13 6 -23 13 -23 8 -1 7 -5 -4 -13 -8 -7 -20 -37 -26 -67 -10 -55 -10 -55 -18
-21 l-8 33 -14 -23 c-7 -13 -13 -17 -12 -9 1 8 0 33 -1 55 l-2 40 -10 -43 c-9
-43 -27 -49 -29 -9 0 21 -1 21 -8 2 -7 -16 -10 -12 -19 25 l-10 45 -2 -35 c-2
-33 -3 -33 -10 -10 -4 14 -8 58 -9 98 -1 40 -5 71 -10 68 -4 -3 -6 -40 -4 -83
2 -50 0 -71 -6 -58 -4 11 -6 38 -3 60 4 38 4 39 -12 20 -16 -19 -17 -19 -10
15 6 35 57 135 75 145 5 4 14 15 20 27 21 40 -10 8 -50 -50 -56 -82 -73 -138
-59 -192 10 -39 9 -45 -6 -54 -58 -35 -105 -79 -128 -122 -34 -64 -47 -169
-25 -212 13 -28 13 -31 -3 -35 -10 -2 -42 -40 -71 -83 -43 -64 -53 -86 -53
-119 1 -29 -1 -35 -7 -20 -8 20 -8 20 -8 0 -1 -11 -13 -44 -28 -73 -27 -53
-27 -54 -8 -69 11 -7 31 -13 45 -12 42 2 46 -1 21 -14 -58 -29 -52 -63 40
-253 49 -102 79 -176 79 -199 0 -6 -28 -17 -66 -24 -36 -6 -117 -27 -181 -47
-107 -32 -116 -34 -128 -18 -11 16 -14 15 -31 -12 -10 -16 -18 -30 -18 -30 -1
-1 -11 -4 -22 -8 -21 -6 -21 -6 -8 31 19 54 17 111 -6 162 -20 43 -21 43 -40
26 -45 -41 -62 -152 -35 -232 11 -33 -9 -29 -59 11 -54 45 -85 56 -152 56 -53
0 -65 -9 -46 -35 24 -32 85 -78 117 -89 l37 -13 -36 -22 c-20 -13 -41 -31 -46
-41 -17 -33 -11 -86 15 -123 23 -35 24 -37 5 -47 -10 -5 -21 -10 -23 -10 -11
0 -119 154 -166 236 -150 264 -224 548 -225 864 0 253 35 437 125 661 42 105
57 135 135 265 134 225 361 449 589 581 132 76 147 84 263 129 145 58 266 88
407 104 61 6 119 13 130 15 40 7 278 -5 382 -21z m0 -531 c-3 -10 -5 -4 -5 12
0 17 2 24 5 18 2 -7 2 -21 0 -30z m-443 -615 c-3 -4 2 -8 11 -8 13 0 14 -3 3
-22 l-12 -23 -7 25 c-4 14 -7 34 -8 45 -1 16 1 17 8 5 6 -8 7 -18 5 -22z m-68
-45 c-11 -11 -19 6 -11 24 8 17 8 17 12 0 3 -10 2 -21 -1 -24z m121 3 c-3 -8
0 -17 8 -20 9 -3 12 0 8 10 -3 7 0 14 5 14 17 0 23 -18 10 -27 -19 -11 -38
-12 -38 -2 0 6 -4 8 -9 5 -7 -5 -8 11 -2 32 1 1 6 2 12 2 6 0 9 -6 6 -14z
m263 -11 c-13 -14 -25 -23 -27 -21 -8 7 10 35 25 39 10 3 19 5 21 6 3 0 -6
-10 -19 -24z m-624 -10 c4 -8 10 -13 15 -10 4 3 15 -7 23 -22 8 -15 15 -22 16
-15 0 7 -5 22 -10 33 -8 14 -7 19 3 19 7 0 18 -15 24 -32 5 -18 8 -23 6 -10
-2 12 1 22 6 22 19 0 81 -31 81 -41 0 -5 5 -7 10 -4 6 3 13 -1 16 -9 4 -9 18
-16 34 -16 16 0 32 -5 35 -10 4 -6 10 -8 15 -5 5 3 16 -5 24 -17 9 -12 16 -17
16 -10 0 18 28 14 39 -5 7 -12 10 -13 11 -4 0 18 70 6 86 -15 9 -11 13 -12 16
-3 3 8 9 9 19 4 8 -5 23 -11 34 -12 11 -2 23 -10 28 -18 9 -17 27 -20 27 -4 0
5 -4 7 -10 4 -5 -3 -10 -1 -10 6 0 6 8 9 20 6 11 -3 20 -1 20 5 0 15 51 0 67
-20 11 -15 12 -15 7 -1 -4 12 3 18 26 23 18 3 36 3 41 0 5 -3 9 0 9 7 0 7 11
10 29 7 17 -2 28 -1 26 3 -8 13 22 18 35 6 10 -9 11 -9 6 1 -11 18 14 15 38
-5 19 -16 19 -16 7 -1 -19 25 5 49 38 37 19 -8 22 -6 18 6 -5 12 -3 13 12 3
15 -9 23 -7 42 10 29 28 32 28 63 -9 20 -23 24 -35 16 -48 -5 -10 -7 -21 -3
-24 3 -3 2 -14 -2 -24 -5 -10 -8 -21 -7 -24 1 -4 -14 -23 -32 -42 -19 -20 -31
-39 -27 -43 3 -4 0 -4 -6 0 -7 4 -20 -2 -30 -14 -19 -22 -39 -28 -27 -7 5 8 3
8 -9 -2 -9 -7 -15 -16 -13 -20 3 -4 0 -13 -6 -21 -8 -13 -9 -12 -5 2 10 28
-20 28 -48 -2 -17 -18 -33 -26 -46 -23 -19 5 -19 6 -2 27 10 11 3 8 -15 -8
-17 -17 -32 -26 -32 -21 0 4 -9 0 -19 -9 -11 -10 -17 -24 -14 -32 3 -8 1 -14
-4 -14 -17 0 -11 34 11 60 11 14 4 10 -16 -9 -36 -33 -37 -33 -34 -10 1 14 6
31 10 38 11 17 -7 34 -30 29 -12 -2 -20 -13 -22 -30 -2 -14 -14 -38 -27 -52
-12 -13 -20 -27 -17 -30 3 -3 0 -6 -6 -6 -18 0 -14 21 6 36 10 8 12 13 4 14
-15 0 -54 -21 -64 -35 -5 -6 -8 -4 -8 4 0 8 8 24 17 35 13 16 11 15 -9 -3 -15
-13 -25 -29 -21 -35 3 -6 0 -5 -7 1 -11 10 -17 10 -29 0 -12 -10 -13 -9 -6 2
6 11 4 13 -8 8 -21 -8 -22 7 -1 27 23 24 4 19 -22 -5 -23 -21 -28 -10 -10 21
5 8 -3 4 -17 -9 -15 -13 -25 -27 -22 -30 2 -4 -6 -8 -17 -8 -20 -2 -20 -1 3
25 13 15 17 21 9 15 -8 -7 -23 -13 -33 -13 -17 0 -18 2 -6 18 18 23 -29 -14
-53 -43 -11 -12 -18 -15 -18 -7 0 7 11 24 25 37 33 34 18 32 -19 -2 l-30 -28
17 27 c21 34 21 35 0 35 -10 0 -29 -9 -42 -21 -13 -11 -21 -15 -17 -8 4 6 3
12 -2 12 -5 0 -15 -12 -22 -27 -8 -18 -14 -23 -17 -15 -3 8 5 28 17 45 l23 32
-31 -29 c-17 -15 -28 -35 -25 -42 3 -8 0 -14 -6 -14 -6 0 -10 6 -9 13 2 6 -3
11 -10 9 -8 -1 -11 2 -7 8 3 6 10 8 14 5 5 -2 14 8 20 23 13 27 13 27 -8 8
-12 -11 -24 -16 -28 -12 -4 4 3 17 17 28 25 20 25 20 -12 -1 -38 -20 -49 -10
-18 17 8 7 0 5 -17 -4 -18 -10 -33 -22 -33 -27 0 -4 5 -5 11 -2 6 4 5 -2 -3
-14 -7 -12 -20 -21 -28 -21 -11 1 -10 3 4 11 12 8 15 14 7 18 -8 5 -5 16 9 34
12 15 19 27 16 27 -8 0 -51 -44 -51 -52 0 -3 -4 -10 -9 -15 -5 -4 -6 -3 -3 4
4 6 0 19 -9 27 -13 13 -14 20 -4 31 7 8 17 15 23 15 7 0 7 -4 -1 -12 -19 -19
-14 -30 8 -18 19 10 19 12 4 35 -18 27 -44 34 -44 11 0 -7 -7 -19 -15 -26 -18
-15 -20 0 -2 20 10 12 9 12 -5 1 -10 -7 -20 -21 -23 -32 -4 -10 -11 -19 -16
-19 -6 0 -2 15 7 33 41 78 45 96 14 58 -11 -13 -20 -18 -20 -11 0 10 -3 10
-15 0 -13 -11 -14 -10 -9 6 4 10 12 26 18 35 6 8 -1 2 -15 -13 -32 -35 -45
-26 -17 12 25 34 15 60 -13 34 -20 -18 -27 -40 -9 -29 6 3 10 1 10 -5 0 -7 -6
-10 -12 -7 -7 2 -12 14 -11 26 2 15 -1 20 -9 15 -14 -9 -5 8 28 53 13 17 24
38 24 46 0 8 7 20 15 27 8 7 15 19 15 28 0 20 29 52 47 52 7 0 16 -7 19 -15z
m224 -6 c0 -5 3 -8 8 -6 4 3 7 -8 8 -24 1 -31 -5 -36 -24 -17 -15 15 -16 58
-2 58 6 0 10 -5 10 -11z m214 -6 c6 -15 8 -15 16 -3 6 10 13 11 19 5 7 -7 2
-18 -15 -34 l-24 -23 0 26 c0 14 -5 26 -11 26 -7 0 -9 -10 -5 -25 8 -30 -3
-77 -15 -69 -5 3 -9 12 -9 20 0 8 5 12 10 9 11 -7 8 18 -5 49 -5 12 -3 21 6
27 20 13 26 11 33 -8z m140 1 c7 -18 0 -34 -16 -34 -6 0 -6 6 2 15 11 13 10
14 -4 9 -16 -6 -22 6 -9 19 11 11 20 8 27 -9z m-267 -18 c-3 -8 -1 -16 5 -18
7 -3 9 -11 3 -24 -7 -18 -8 -17 -15 6 -12 37 -11 50 1 50 6 0 9 -6 6 -14z
m222 5 c7 -5 10 -14 7 -20 -4 -6 -2 -11 5 -11 8 0 8 -4 -2 -16 -11 -14 -13
-14 -21 0 -5 9 -6 21 -3 26 3 6 1 10 -4 10 -6 0 -11 5 -11 10 0 12 10 13 29 1z
m352 -9 c-5 -10 -17 -24 -25 -32 -9 -7 -16 -18 -16 -26 0 -7 -4 -16 -10 -19
-19 -12 -10 11 21 53 32 44 47 55 30 24z m-611 -1 c0 -5 3 -18 7 -28 6 -16 5
-16 -10 -4 -19 15 -23 41 -7 41 6 0 10 -4 10 -9z m80 -6 c0 -8 -4 -15 -9 -15
-13 0 -22 16 -14 24 11 11 23 6 23 -9z m37 -21 c-9 -9 -28 6 -21 18 4 6 10 6
17 -1 6 -6 8 -13 4 -17z m107 17 c3 -5 0 -14 -8 -20 -10 -9 -15 -8 -19 3 -9
22 15 37 27 17z m80 -48 c-40 -37 -63 -43 -42 -11 9 13 22 23 29 23 8 0 15 6
15 13 3 24 4 26 16 14 9 -9 4 -18 -18 -39z m222 -3 c-14 -17 -26 -27 -26 -22
0 13 41 64 47 58 3 -3 -6 -19 -21 -36z m-286 21 c0 -6 -4 -13 -10 -16 -5 -3
-10 1 -10 9 0 9 5 16 10 16 6 0 10 -4 10 -9z m470 -1 c-8 -5 -19 -10 -25 -10
-5 0 -3 5 5 10 8 5 20 10 25 10 6 0 3 -5 -5 -10z m-606 -15 c3 -8 1 -15 -4
-15 -6 0 -10 7 -10 15 0 8 2 15 4 15 2 0 6 -7 10 -15z m236 -5 c0 -5 -5 -10
-11 -10 -5 0 -7 5 -4 10 3 6 8 10 11 10 2 0 4 -4 4 -10z m-130 -20 c0 -5 -5
-10 -11 -10 -5 0 -7 5 -4 10 3 6 8 10 11 10 2 0 4 -4 4 -10z m140 -5 c-14 -17
-50 -20 -50 -4 0 6 8 8 19 4 11 -3 22 -1 26 5 3 5 9 10 12 10 3 0 0 -7 -7 -15z
m85 -5 c-3 -5 -11 -10 -16 -10 -6 0 -7 5 -4 10 3 6 11 10 16 10 6 0 7 -4 4
-10z m414 -17 c0 -25 -1 -26 -9 -8 -12 27 -12 35 0 35 6 0 10 -12 9 -27z m-23
-55 c0 -12 -7 -23 -15 -26 -10 -3 -11 0 -5 9 5 8 9 17 10 22 3 14 4 17 8 17 2
0 3 -10 2 -22z m-1204 -10 c-7 -7 -12 -8 -12 -2 0 14 12 26 19 19 2 -3 -1 -11
-7 -17z m1190 -70 c-7 -7 -12 -8 -12 -2 0 6 3 14 7 17 3 4 9 5 12 2 2 -3 -1
-11 -7 -17z m11 -23 c-3 -9 -8 -14 -10 -11 -3 3 -2 9 2 15 9 16 15 13 8 -4z
m-121 -52 c-3 -16 -7 -22 -10 -15 -4 13 4 42 11 42 2 0 2 -12 -1 -27z m-1065
-7 c3 -3 -21 -30 -53 -61 l-59 -57 64 56 c50 43 67 53 77 45 8 -6 11 -16 7
-22 -4 -6 -1 -7 6 -2 7 4 24 2 37 -6 23 -12 23 -13 7 -33 -15 -18 -14 -18 8 2
29 25 47 18 22 -10 -15 -17 -15 -18 1 -18 9 0 14 -4 11 -10 -3 -5 -1 -10 5
-10 6 0 10 6 9 13 -3 24 1 37 12 37 5 0 7 -5 3 -12 -4 -7 -3 -8 5 -4 21 13 71
-4 71 -24 0 -29 20 -34 41 -11 19 20 59 29 59 14 0 -4 -10 -17 -22 -30 -12
-13 -16 -23 -10 -23 6 0 19 11 28 25 9 14 26 25 37 25 20 0 20 -1 -3 -25 -13
-14 -20 -25 -16 -25 4 0 18 12 31 28 13 15 27 24 31 19 4 -4 -3 -18 -16 -32
-13 -14 -20 -25 -16 -25 4 0 17 11 29 25 19 22 27 25 56 19 31 -7 33 -8 16
-20 -10 -8 -16 -17 -12 -20 4 -4 15 3 25 16 25 31 72 22 72 -15 0 -13 5 -27
10 -30 17 -10 42 16 36 37 -6 23 -6 23 129 39 76 9 102 15 85 20 -14 4 6 5 44
3 39 -2 75 1 82 7 7 6 23 11 36 13 13 1 33 8 46 15 24 13 29 3 10 -19 -7 -7 2
-2 20 13 19 15 43 28 55 29 22 1 34 3 50 8 4 1 11 3 16 4 5 0 13 4 17 9 13 13
25 8 23 -10 -3 -31 1 -36 16 -23 21 17 19 4 -6 -39 -20 -34 -20 -35 -1 -13 11
12 23 28 25 35 4 9 8 8 16 -3 5 -8 7 -18 5 -22 -3 -4 2 -8 11 -8 11 0 15 -5
11 -15 -3 -8 -1 -15 4 -15 6 0 22 -26 36 -57 14 -32 37 -70 50 -85 31 -32 28
-57 -8 -78 -43 -23 -63 -5 -64 60 -2 65 -24 90 -86 97 -53 6 -103 -16 -120
-53 -10 -20 -8 -29 10 -54 27 -36 28 -56 2 -70 -28 -15 -76 23 -104 82 -49
102 -219 128 -336 52 -19 -12 -55 -25 -80 -29 -40 -5 -51 -2 -95 27 -46 30
-56 33 -125 32 -84 -1 -182 -31 -215 -65 -18 -20 -17 -20 12 1 52 37 46 20
-16 -48 -55 -58 -61 -62 -103 -62 -59 0 -82 18 -84 66 -1 27 -8 44 -28 61 -39
34 -67 29 -109 -17 -35 -39 -60 -50 -72 -31 -6 11 63 174 76 179 5 2 6 9 3 14
-4 6 -3 8 3 5 6 -4 21 5 33 18 13 14 20 25 16 25 -5 0 -3 7 4 15 7 9 10 18 6
22 -14 14 26 42 56 38 17 -2 32 -6 35 -9z m973 -6 c0 -5 -5 -10 -11 -10 -5 0
-7 5 -4 10 3 6 8 10 11 10 2 0 4 -4 4 -10z m-620 -25 c-7 -9 -15 -13 -17 -11
-7 7 7 26 19 26 6 0 6 -6 -2 -15z m395 -22 c-2 -10 -4 -20 -4 -22 -1 -3 -6 0
-12 6 -6 6 -8 16 -5 22 11 17 25 13 21 -6z m-897 -18 c-6 -14 -13 -23 -15 -21
-5 5 15 46 22 46 3 0 -1 -11 -7 -25z m576 1 c-6 -16 -24 -23 -24 -8 0 10 22
33 27 28 2 -2 1 -11 -3 -20z m446 10 c0 -3 -4 -8 -10 -11 -5 -3 -10 -1 -10 4
0 6 5 11 10 11 6 0 10 -2 10 -4z m17 -32 c-3 -3 -12 -4 -19 -1 -8 3 -5 6 6 6
11 1 17 -2 13 -5z m-134 -21 c-13 -2 -35 -2 -50 0 -16 2 -5 4 22 4 28 0 40 -2
28 -4z m-196 -9 c-3 -3 -12 -4 -19 -1 -8 3 -5 6 6 6 11 1 17 -2 13 -5z m50 0
c-3 -3 -12 -4 -19 -1 -8 3 -5 6 6 6 11 1 17 -2 13 -5z m-20 -56 c-3 -8 -6 -5
-6 6 -1 11 2 17 5 13 3 -3 4 -12 1 -19z m-147 -48 c12 -8 11 -10 -7 -10 -12 0
-25 5 -28 10 -8 13 15 13 35 0z m387 -22 c-9 -13 -29 -38 -43 -55 -18 -22 -22
-33 -13 -33 8 0 27 20 42 44 28 45 54 72 62 65 2 -3 -14 -26 -37 -52 -22 -27
-37 -51 -33 -55 4 -4 15 4 24 18 31 48 73 90 83 84 5 -4 -3 -20 -20 -38 -42
-44 -72 -105 -37 -76 8 7 15 18 15 24 0 7 16 27 35 46 41 39 46 29 10 -20 -23
-31 -24 -35 -8 -52 13 -15 19 -16 31 -5 13 9 14 9 8 0 -14 -24 9 -13 27 13 22
29 14 47 -8 18 -8 -10 -14 -14 -14 -9 0 6 6 18 14 29 13 17 15 17 29 3 20 -20
20 -22 -6 -57 -12 -16 -18 -33 -13 -37 4 -5 9 -3 12 2 8 23 22 39 29 32 4 -3
1 -13 -5 -21 -21 -25 -2 -40 22 -19 15 12 18 13 9 2 -15 -19 -4 -33 15 -18 9
8 13 8 13 1 0 -6 -14 -21 -32 -33 -17 -13 -29 -18 -25 -12 10 16 -91 7 -112
-9 -14 -11 -14 -11 -3 4 12 15 11 17 -10 16 -13 -1 -32 -9 -43 -17 -18 -15
-19 -15 -7 0 11 15 7 16 -42 14 -30 -2 -60 -6 -67 -10 -7 -5 -10 -4 -5 3 4 7
-5 11 -26 10 -45 0 -69 5 -97 21 -21 12 -26 10 -57 -20 -18 -18 -36 -30 -39
-27 -3 3 1 11 10 18 8 7 15 17 15 22 0 7 -5 6 -13 -1 -8 -6 -17 -8 -20 -4 -4
3 -13 1 -20 -5 -8 -7 -17 -9 -20 -5 -4 3 -15 -1 -24 -9 -10 -8 -25 -18 -33
-22 -8 -4 -4 1 10 13 20 15 22 23 13 32 -10 10 -15 9 -28 -1 -12 -10 -15 -10
-15 2 0 11 -7 14 -24 11 -13 -3 -37 2 -53 11 -27 13 -31 13 -46 -2 -11 -10
-17 -12 -17 -4 0 21 -48 13 -65 -10 l-16 -23 4 28 c2 16 16 44 31 63 22 28 25
38 16 49 -12 14 -10 16 6 14 4 0 11 5 15 13 7 11 9 11 9 -1 0 -11 3 -11 15 -1
8 7 15 9 15 4 0 -4 11 3 25 16 14 13 25 19 25 13 0 -5 -11 -20 -25 -33 -15
-14 -25 -18 -25 -11 0 7 -16 -6 -35 -29 -20 -24 -33 -45 -30 -48 3 -3 6 -3 8
-1 46 60 47 62 47 43 0 -14 5 -11 19 12 19 32 82 86 90 78 2 -2 -7 -17 -20
-32 -42 -46 -52 -62 -40 -62 6 0 22 18 37 39 27 41 58 64 47 34 -5 -12 -3 -14
7 -8 9 5 11 4 6 -4 -4 -6 -11 -9 -16 -6 -4 3 -13 -2 -20 -10 -9 -11 -9 -21 1
-44 l13 -29 39 44 c22 25 42 42 45 39 3 -3 -7 -19 -23 -35 -39 -40 -20 -38 22
2 39 37 44 26 8 -16 -14 -16 -25 -31 -25 -33 0 -11 39 20 54 42 9 14 21 25 27
25 6 0 -3 -16 -21 -36 -17 -20 -29 -39 -25 -42 3 -3 19 11 36 31 17 20 36 37
42 37 6 0 -3 -15 -21 -33 -50 -51 -38 -56 15 -7 26 25 37 33 24 18 -13 -15
-21 -32 -19 -38 2 -7 15 4 28 24 14 19 32 38 40 41 8 4 5 -4 -8 -18 -24 -25
-30 -43 -10 -31 7 5 21 9 32 10 11 0 22 7 24 14 7 20 52 63 59 57 3 -3 -4 -18
-16 -33 -12 -15 -19 -30 -15 -33 3 -3 14 5 25 19 17 21 19 22 10 3 -14 -27
-14 -33 -1 -33 6 0 10 7 10 15 0 9 21 38 47 66 46 49 70 60 40 17z m-62 -18
c-10 -11 -20 -18 -23 -15 -7 6 18 35 31 35 5 0 2 -9 -8 -20z m-260 0 c3 -6 -1
-7 -9 -4 -18 7 -21 14 -7 14 6 0 13 -4 16 -10z m439 -41 c-15 -23 -30 -36 -32
-30 -5 14 47 85 55 77 4 -3 -7 -24 -23 -47z m-1034 35 c0 -11 -42 -65 -47 -61
-7 8 26 67 37 67 6 0 10 -3 10 -6z m540 3 c0 -2 -14 -16 -32 -33 l-31 -29 22
33 c18 26 41 42 41 29z m-510 -13 c0 -9 -63 -84 -67 -80 -6 6 48 86 58 86 5 0
9 -3 9 -6z m1200 -14 c0 -5 -2 -10 -4 -10 -3 0 -8 5 -11 10 -3 6 -1 10 4 10 6
0 11 -4 11 -10z m-470 -3 c0 -2 -10 -12 -21 -23 -22 -19 -22 -19 -8 4 12 19
29 30 29 19z m494 -12 c-8 -20 5 -19 30 3 l21 17 -20 -25 c-11 -14 -21 -27
-22 -29 -1 -2 -9 2 -18 9 -12 10 -13 16 -4 26 15 18 20 18 13 -1z m-1219 -23
c-2 -32 -35 -89 -35 -60 0 9 5 20 10 23 6 3 10 11 10 16 0 6 -5 7 -10 4 -6 -4
-5 5 2 19 15 34 25 33 23 -2z m1265 -26 c0 -2 -8 -10 -17 -17 -16 -13 -17 -12
-4 4 13 16 21 21 21 13z m-1075 -36 c-3 -5 -12 -10 -18 -10 -7 0 -6 4 3 10 19
12 23 12 15 0z m-140 -10 c3 -5 1 -10 -4 -10 -6 0 -11 5 -11 10 0 6 2 10 4 10
3 0 8 -4 11 -10z m595 -24 c0 -2 -8 -10 -17 -17 -16 -13 -17 -12 -4 4 13 16
21 21 21 13z m-257 -31 c-3 -9 -8 -14 -10 -11 -3 3 -2 9 2 15 9 16 15 13 8 -4z
m167 11 c0 -2 -8 -10 -17 -17 -16 -13 -17 -12 -4 4 13 16 21 21 21 13z m-555
-86 c-9 -28 -19 -50 -21 -48 -2 2 4 27 13 56 9 28 19 50 21 47 2 -2 -4 -27
-13 -55z m81 45 c4 -8 12 -15 20 -15 7 0 11 -7 9 -15 -16 -49 -14 -48 -34 -24
l-20 24 -21 -21 c-12 -12 -23 -37 -25 -55 -1 -19 -6 -49 -10 -66 -5 -22 -4
-33 4 -33 6 0 12 12 12 28 2 24 2 24 6 4 3 -13 0 -37 -6 -54 -13 -38 -6 -48
15 -22 14 18 15 18 8 -6 -3 -14 -10 -32 -15 -40 -9 -17 -6 -21 -34 58 -16 46
-10 102 18 178 8 21 18 47 21 57 7 21 44 23 52 2z m1234 10 c0 -2 -5 -16 -12
-30 -8 -19 -17 -25 -31 -21 -33 8 -71 -41 -100 -129 -15 -44 -27 -90 -27 -103
0 -16 -6 -22 -22 -22 -46 0 -51 12 -34 70 23 76 21 127 -4 140 -48 26 -82 -17
-101 -126 -12 -67 -14 -69 -68 -58 l-31 7 0 77 c0 59 -4 83 -18 99 -16 21 -19
21 -54 7 -31 -13 -39 -23 -49 -58 -6 -24 -9 -60 -6 -80 l5 -38 -80 0 -81 0 6
43 c7 53 -6 115 -30 137 -23 23 -54 32 -71 21 -20 -12 -35 -78 -33 -143 1 -37
-2 -58 -9 -58 -7 0 -9 14 -6 38 l6 37 -12 -35 c-11 -32 -28 -54 -36 -46 -2 2
3 28 12 57 20 74 27 129 16 129 -21 0 5 32 37 45 58 25 98 19 140 -18 49 -43
72 -51 92 -33 24 22 97 46 138 46 26 0 42 -8 64 -32 l30 -31 34 33 c47 46 109
52 152 16 35 -29 43 -32 43 -13 0 19 43 57 76 67 33 9 64 12 64 5z m-950 -37
c16 -13 29 -29 29 -35 1 -7 10 -13 20 -13 11 0 22 -3 24 -7 4 -8 -32 -174 -39
-182 -13 -14 -11 14 6 79 11 41 17 76 15 79 -5 5 -8 -2 -34 -94 l-19 -70 -1
75 c-1 82 -3 87 -43 113 -33 21 -37 21 -63 1 -16 -12 -21 -31 -26 -100 -5 -84
-14 -103 -46 -104 -9 0 -10 7 -4 23 5 13 16 47 25 76 12 41 12 51 2 42 -7 -6
-18 -34 -25 -63 -14 -63 -31 -96 -31 -61 0 12 4 32 9 46 22 58 39 127 31 127
-4 0 -14 -22 -21 -50 -7 -27 -16 -50 -21 -50 -10 0 -10 -5 7 60 8 30 12 56 10
58 -5 5 -25 -43 -25 -61 0 -7 -9 2 -20 19 -19 29 -19 34 -5 65 10 25 14 29 15
13 0 -30 51 -20 87 18 25 27 33 29 71 24 24 -3 57 -16 72 -28z m-396 -32 c-9
-26 -19 -45 -22 -42 -2 3 3 26 13 51 22 60 30 53 9 -9z m-44 24 c0 -5 -2 -10
-4 -10 -3 0 -8 5 -11 10 -3 6 -1 10 4 10 6 0 11 -4 11 -10z m607 -72 c-3 -8
-6 -5 -6 6 -1 11 2 17 5 13 3 -3 4 -12 1 -19z m-207 -100 c-19 -68 -20 -71
-25 -67 -2 3 1 25 6 49 15 64 19 74 25 67 3 -3 0 -25 -6 -49z m480 -40 c0 -5
-4 -8 -10 -8 -5 0 -10 10 -10 23 0 18 2 19 10 7 5 -8 10 -18 10 -22z m-266 7
c-4 -8 -8 -15 -10 -15 -2 0 -4 7 -4 15 0 8 4 15 10 15 5 0 7 -7 4 -15z m297
-18 c-10 -9 -11 -8 -5 6 3 10 9 15 12 12 3 -3 0 -11 -7 -18z m-581 -2 c0 -8
-4 -15 -10 -15 -5 0 -10 7 -10 15 0 8 5 15 10 15 6 0 10 -7 10 -15z m940 -19
c0 -2 -7 -7 -16 -10 -8 -3 -12 -2 -9 4 6 10 25 14 25 6z m-1130 -16 c0 -5 -4
-10 -10 -10 -5 0 -10 5 -10 10 0 6 5 10 10 10 6 0 10 -4 10 -10z m870 -5 c200
-21 334 -43 440 -71 249 -65 505 -166 562 -221 51 -49 37 -87 -69 -187 -35
-33 -63 -63 -63 -68 0 -22 -54 -144 -68 -155 -25 -20 -76 -15 -136 12 -30 14
-62 25 -71 25 -34 0 -30 -57 6 -68 10 -4 9 1 -4 16 -29 32 -3 36 56 7 34 -16
71 -25 101 -25 60 0 83 23 116 116 24 70 80 144 108 144 22 0 154 -84 225
-143 71 -59 79 -53 -104 -82 l-117 -18 -6 -51 c-3 -28 -6 -86 -6 -128 0 -43
-2 -78 -5 -78 -3 0 -31 20 -62 44 -64 48 -185 121 -278 168 -66 33 -75 42 -75
75 0 27 46 83 69 83 29 0 121 -51 121 -67 0 -11 -7 -14 -25 -11 -13 3 -22 1
-19 -3 7 -12 61 -11 68 0 20 31 -64 82 -228 140 -583 206 -1325 181 -1868 -63
-55 -24 -85 -56 -73 -76 8 -12 62 -13 69 -1 3 4 -6 6 -19 3 -19 -3 -25 0 -25
12 0 17 90 66 122 66 21 0 68 -60 68 -88 0 -19 -42 -62 -61 -62 -15 0 -235
-132 -292 -176 -31 -24 -59 -44 -62 -44 -3 0 -5 35 -6 78 0 42 -4 99 -7 127
l-7 50 -65 11 c-36 7 -99 17 -140 24 l-75 13 45 40 c53 47 219 157 237 157 31
0 84 -66 108 -135 37 -103 52 -119 112 -123 38 -2 65 4 108 23 61 28 77 26 56
-7 -10 -16 -10 -19 0 -16 35 12 37 68 2 68 -10 0 -42 -11 -71 -25 -57 -26
-101 -31 -131 -15 -10 5 -32 47 -50 94 -29 75 -40 92 -94 141 -34 31 -67 66
-74 78 -16 28 -16 68 0 88 46 60 349 180 617 243 89 22 324 56 465 69 110 10
454 5 575 -8z m-651 -570 c51 -26 53 -106 4 -130 -19 -10 -20 -13 -7 -36 10
-19 11 -35 4 -61 -13 -44 -38 -67 -83 -75 -30 -4 -40 -1 -61 21 -19 21 -26 24
-33 13 -27 -44 -110 -62 -145 -30 -22 20 -24 71 -2 101 19 27 28 28 54 2 11
-11 26 -20 34 -20 26 0 68 43 94 99 29 61 55 73 60 28 3 -20 8 -27 20 -25 20
4 29 45 13 61 -13 13 -93 12 -120 -2 -23 -13 -28 -50 -10 -68 16 -16 -24 -53
-56 -53 -34 0 -59 40 -50 79 8 36 73 98 112 107 16 3 33 8 38 10 20 7 105 -5
134 -21z m381 -2 c0 -3 -13 -35 -30 -73 -34 -78 -35 -80 -17 -80 6 1 21 15 32
33 16 24 28 32 50 32 24 0 31 -5 33 -23 5 -30 -14 -52 -45 -52 -18 0 -24 -5
-21 -17 8 -42 81 -26 104 22 44 93 154 104 154 16 0 -35 -37 -64 -76 -59 -21
2 -33 0 -31 -6 6 -20 77 -19 99 1 38 34 58 74 45 94 -25 40 44 66 91 33 19
-13 22 -23 20 -67 -3 -42 0 -52 14 -55 13 -2 25 12 46 55 16 35 35 59 46 61
17 4 18 0 12 -34 -13 -66 -12 -78 6 -82 12 -2 25 13 46 55 44 90 86 79 47 -14
-8 -19 -15 -39 -15 -44 0 -18 35 -9 48 12 23 36 37 7 17 -32 -24 -47 -45 -69
-67 -69 -12 0 -24 -14 -34 -40 -29 -72 -91 -100 -142 -64 -23 16 -30 66 -12
94 8 12 11 12 28 -3 28 -25 67 -21 91 9 12 15 21 33 21 42 0 9 -7 5 -21 -12
-26 -33 -76 -36 -87 -5 l-8 20 -18 -20 c-23 -25 -78 -28 -97 -5 -10 13 -9 25
6 70 27 79 7 92 -33 22 -46 -80 -65 -98 -102 -107 -47 -10 -82 0 -96 27 l-11
22 -24 -26 c-18 -19 -31 -24 -59 -22 -32 3 -36 6 -44 46 -5 23 -15 42 -22 42
-8 0 -14 -16 -16 -42 -3 -39 -6 -43 -30 -46 -21 -3 -28 1 -28 14 0 16 -1 16
-18 1 -10 -10 -33 -17 -50 -17 -28 0 -32 3 -32 26 l0 27 -25 -27 c-19 -21 -33
-27 -58 -24 -29 3 -32 6 -35 43 -5 62 6 102 39 134 27 27 34 30 94 28 73 -2
79 -11 50 -68 -16 -30 -13 -49 7 -49 16 0 48 31 48 46 0 24 40 122 61 148 11
15 26 23 34 19 8 -3 15 -7 15 -10z m-1021 -322 c201 -128 410 -208 676 -258
128 -23 380 -28 515 -9 112 16 305 60 385 89 90 32 256 114 344 169 l93 59 44
-22 c24 -11 44 -24 44 -28 0 -11 -72 -60 -183 -125 -373 -219 -828 -300 -1262
-226 -206 35 -341 78 -530 171 -106 51 -285 163 -285 177 0 7 67 51 79 52 2 0
38 -22 80 -49z m1366 -61 c0 -13 -61 -15 -474 -18 -281 -1 -479 2 -484 7 -29
29 11 31 481 29 416 -3 477 -5 477 -18z"/>
<path d="M2487 4123 c-20 -19 -5 -31 32 -26 59 8 60 -12 2 -65 -28 -26 -51
-53 -51 -60 0 -8 22 -12 75 -12 60 0 75 3 75 15 0 10 -10 15 -30 15 -37 0 -38
16 -5 42 27 21 34 65 13 86 -13 13 -100 17 -111 5z"/>
<path d="M2217 4107 c-53 -7 -67 -13 -63 -24 3 -8 6 -18 6 -22 0 -5 11 -6 24
-4 21 4 24 0 35 -56 11 -56 14 -61 38 -61 21 0 24 4 20 23 -4 12 -9 41 -13 64
-6 40 -5 42 20 49 18 4 25 11 22 21 -3 8 -6 17 -6 19 0 2 -3 3 -7 3 -5 -1 -39
-6 -76 -12z"/>
<path d="M2700 4090 c-27 -27 -28 -110 -2 -133 29 -26 86 -22 106 8 22 34 21
107 -2 128 -25 23 -78 21 -102 -3z m78 -43 c2 -10 1 -30 -2 -43 -9 -33 -49
-30 -54 3 -7 49 47 87 56 40z"/>
<path d="M2012 4060 c-12 -5 -27 -21 -34 -35 -16 -36 12 -65 64 -65 26 0 38
-4 38 -14 0 -14 -55 -30 -71 -20 -11 7 -11 -17 0 -34 11 -18 78 -5 102 19 40
40 19 79 -45 86 -25 3 -46 9 -46 13 0 10 26 20 52 20 13 0 18 6 16 18 -4 20
-42 26 -76 12z"/>
<path d="M2917 4063 c-18 -17 -4 -32 30 -35 62 -5 54 -31 -16 -59 -59 -23 -83
-45 -58 -54 74 -27 126 -42 131 -38 14 15 3 32 -26 42 l-33 12 42 18 c63 29
69 77 12 106 -29 16 -71 20 -82 8z"/>
<path d="M1830 3985 c-30 -13 -54 -28 -53 -34 7 -29 66 -141 74 -141 23 0 109
52 109 65 0 18 1 18 -43 0 -45 -19 -57 -19 -57 -1 0 8 11 17 25 20 17 4 25 13
25 27 0 21 -9 22 -51 5 -10 -5 -19 -2 -22 7 -4 10 7 20 33 32 25 11 37 22 33
31 -6 17 -6 17 -73 -11z"/>
<path d="M2374 3985 c-8 -19 12 -36 33 -28 19 7 12 37 -10 41 -9 2 -20 -4 -23
-13z"/>
<path d="M3117 3993 c-13 -13 -7 -21 23 -26 21 -5 30 -12 30 -27 0 -22 -7 -25
-30 -10 -9 6 -17 5 -22 -3 -12 -19 -10 -25 12 -32 25 -8 26 -35 1 -35 -10 0
-30 9 -43 20 -25 19 -38 18 -38 -6 0 -19 64 -54 98 -54 33 0 58 29 48 55 -2 7
2 19 10 25 8 7 14 26 14 42 0 24 -6 32 -35 44 -38 15 -58 18 -68 7z"/>
<path d="M2600 3834 c8 -8 17 -32 21 -52 l7 -37 1 33 c1 37 -14 72 -31 72 -7
0 -6 -6 2 -16z"/>
<path d="M2558 3784 c8 -24 17 -43 19 -40 6 6 -16 74 -26 81 -5 2 -1 -16 7
-41z"/>
<path d="M2396 3800 c-52 -16 -76 -48 -76 -101 0 -52 23 -79 67 -79 13 0 23
-4 23 -10 0 -21 -75 -82 -134 -109 -35 -16 -67 -34 -71 -41 -4 -7 -4 -11 1 -8
100 45 128 62 164 94 41 38 80 107 80 144 0 9 -7 24 -16 31 -14 11 -19 10 -34
-11 -20 -26 -17 -47 8 -53 13 -3 11 -7 -10 -17 -25 -12 -30 -11 -48 5 -13 12
-20 31 -20 56 0 31 6 42 33 62 43 33 74 39 113 22 69 -29 91 -80 63 -152 -18
-47 -2 -91 53 -149 28 -30 53 -52 56 -49 3 3 -19 30 -48 60 l-52 56 7 82 c7
92 -2 128 -38 152 -31 20 -84 27 -121 15z m44 -111 c0 -5 -4 -9 -10 -9 -5 0
-10 7 -10 16 0 8 5 12 10 9 6 -3 10 -10 10 -16z"/>
<path d="M1640 3671 c-41 -13 -104 -48 -122 -68 -23 -26 -58 -103 -58 -131 0
-21 3 -23 33 -17 55 12 74 23 118 62 44 39 78 101 79 141 0 23 -9 25 -50 13z"/>
<path d="M3310 3658 c1 -83 99 -184 199 -204 26 -6 31 -4 31 14 0 25 -26 89
-52 125 -21 30 -93 70 -145 82 -30 6 -33 4 -33 -17z"/>
<path d="M1358 3623 c-55 -63 -69 -166 -32 -236 l20 -39 28 41 c50 71 55 171
12 233 -12 17 -14 17 -28 1z"/>
<path d="M3612 3624 c-20 -38 -33 -107 -27 -144 4 -21 20 -60 37 -86 l30 -48
16 29 c40 78 32 174 -21 239 -23 28 -25 29 -35 10z"/>
<path d="M2224 3539 c-24 -26 -25 -30 -7 -20 13 6 27 20 33 31 15 28 8 25 -26
-11z"/>
<path d="M2326 3474 c-3 -9 -6 -17 -6 -18 0 -1 9 -2 20 -3 14 -1 20 4 20 18 0
23 -25 26 -34 3z"/>
<path d="M1180 3398 c-34 -74 -17 -185 33 -227 15 -12 19 -9 34 25 27 65 28
142 1 194 -13 24 -29 46 -36 48 -7 2 -21 -15 -32 -40z"/>
<path d="M2159 3413 l-24 -28 28 24 c25 23 32 31 24 31 -2 0 -14 -12 -28 -27z"/>
<path d="M3771 3427 c-50 -61 -54 -204 -6 -256 11 -11 18 -7 40 27 37 57 44
134 17 195 -22 49 -32 56 -51 34z"/>
<path d="M1466 3400 c-47 -18 -96 -55 -96 -71 0 -11 68 -29 113 -29 21 0 54 7
75 16 35 14 92 60 92 74 0 10 -73 30 -106 30 -16 -1 -51 -10 -78 -20z"/>
<path d="M2795 3410 c8 -13 65 -43 71 -37 5 4 -61 47 -72 47 -3 0 -2 -5 1 -10z"/>
<path d="M3383 3408 c-18 -6 -33 -14 -33 -18 0 -14 57 -60 92 -74 44 -19 109
-19 156 -2 l33 12 -21 26 c-24 31 -116 68 -163 67 -18 -1 -47 -6 -64 -11z"/>
<path d="M2191 3384 c0 -11 3 -14 6 -6 3 7 2 16 -1 19 -3 4 -6 -2 -5 -13z"/>
<path d="M2751 3387 c2 -2 20 -14 39 -26 l35 -23 -28 26 c-15 14 -33 26 -39
26 -6 0 -9 -1 -7 -3z"/>
<path d="M2286 3334 c-9 -20 -14 -39 -11 -42 3 -3 5 0 5 7 0 7 4 10 9 7 7 -5
23 54 17 61 -2 2 -10 -14 -20 -33z"/>
<path d="M2141 3334 c0 -11 3 -14 6 -6 3 7 2 16 -1 19 -3 4 -6 -2 -5 -13z"/>
<path d="M2885 3310 c27 -12 43 -12 25 0 -8 5 -22 9 -30 9 -10 0 -8 -3 5 -9z"/>
<path d="M2126 3284 c-4 -14 -5 -28 -3 -31 3 -2 8 8 11 23 4 14 5 28 3 31 -3
2 -8 -8 -11 -23z"/>
<path d="M2763 3284 c-3 -8 1 -22 9 -30 13 -13 16 -13 27 0 7 9 11 23 7 31 -7
20 -35 19 -43 -1z"/>
<path d="M2096 3265 c-9 -26 -7 -32 5 -12 6 10 9 21 6 23 -2 3 -7 -2 -11 -11z"/>
<path d="M2277 3253 c-3 -16 -9 -37 -13 -48 -5 -14 -4 -17 4 -10 11 10 28 85
19 85 -2 0 -7 -12 -10 -27z"/>
<path d="M1338 3231 c-25 -16 -55 -42 -66 -59 l-22 -30 23 -6 c76 -20 179 13
220 72 15 19 24 39 21 44 -3 4 -33 8 -68 8 -51 0 -70 -5 -108 -29z"/>
<path d="M3486 3252 c-3 -5 7 -27 22 -48 32 -44 100 -74 167 -74 59 0 73 12
51 44 -32 50 -92 80 -166 84 -38 2 -70 0 -74 -6z"/>
<path d="M2186 3228 c-17 -27 -13 -53 9 -62 8 -3 18 7 26 25 10 26 10 33 -4
46 -14 14 -17 13 -31 -9z m15 -31 c-10 -9 -11 -8 -5 6 3 10 9 15 12 12 3 -3 0
-11 -7 -18z"/>
<path d="M1059 3208 c-29 -70 -11 -166 44 -225 27 -30 33 -29 46 8 26 74 3
176 -52 227 l-24 23 -14 -33z"/>
<path d="M3899 3213 c-55 -59 -74 -148 -48 -222 13 -37 19 -38 46 -8 54 58 72
155 42 225 l-14 33 -26 -28z"/>
<path d="M2271 3169 c-8 -15 -9 -19 -1 -14 9 5 10 1 5 -14 -5 -16 -3 -20 9
-15 17 7 21 31 8 51 -6 9 -11 6 -21 -8z"/>
<path d="M2817 3134 c-12 -12 -8 -41 9 -54 22 -19 54 12 38 38 -12 19 -36 27
-47 16z m33 -29 c0 -8 -4 -15 -10 -15 -5 0 -10 7 -10 15 0 8 5 15 10 15 6 0
10 -7 10 -15z"/>
<path d="M2131 3104 c0 -11 3 -14 6 -6 3 7 2 16 -1 19 -3 4 -6 -2 -5 -13z"/>
<path d="M1290 3074 c-57 -25 -120 -95 -120 -135 0 -17 90 -4 138 20 39 20
102 93 102 118 0 18 -76 16 -120 -3z"/>
<path d="M3590 3078 c0 -32 68 -105 119 -126 57 -25 121 -29 121 -8 0 24 -44
80 -87 110 -50 34 -153 51 -153 24z"/>
<path d="M2790 3012 c-37 -54 -37 -63 -1 -18 26 33 38 56 29 56 -2 0 -14 -17
-28 -38z"/>
<path d="M2756 3024 c-23 -23 -20 -30 4 -9 11 10 20 20 20 22 0 7 -9 2 -24
-13z"/>
<path d="M2816 2992 l-19 -27 24 22 c12 12 21 24 18 27 -2 2 -13 -8 -23 -22z"/>
<path d="M966 2978 c-18 -71 4 -146 62 -205 52 -54 62 -48 62 35 0 62 -20 110
-65 158 -38 40 -50 42 -59 12z"/>
<path d="M3972 2963 c-45 -49 -62 -90 -62 -155 0 -78 10 -86 53 -45 61 57 90
144 71 215 -9 31 -21 28 -62 -15z"/>
<path d="M1250 2899 c-63 -26 -110 -80 -131 -152 l-8 -29 37 7 c91 16 182 102
182 171 0 16 -42 18 -80 3z"/>
<path d="M3676 2865 c24 -68 89 -122 172 -140 28 -6 32 -4 32 15 0 31 -36 95
-67 120 -37 29 -89 50 -124 50 l-28 0 15 -45z"/>
<path d="M907 2734 c-6 -36 10 -103 35 -139 21 -32 89 -85 107 -85 15 0 14 68
-1 111 -17 50 -56 98 -99 119 l-37 19 -5 -25z"/>
<path d="M4052 2743 c-36 -17 -86 -75 -102 -117 -5 -15 -10 -48 -10 -73 0 -39
2 -44 18 -39 78 30 135 115 130 195 l-3 50 -33 -16z"/>
<path d="M1230 2709 c-69 -28 -121 -93 -135 -172 l-7 -36 33 9 c61 18 109 58
135 113 39 85 32 109 -26 86z"/>
<path d="M3723 2686 c14 -85 73 -152 156 -176 l33 -9 -7 37 c-15 83 -84 160
-159 178 -29 7 -29 7 -23 -30z"/>
<path d="M1782 2683 c-28 -41 -37 -61 -15 -36 10 12 29 31 43 42 20 16 21 20
8 21 -9 0 -25 -12 -36 -27z"/>
<path d="M3220 2634 c1 -10 59 -82 60 -73 0 3 -13 23 -30 44 -16 21 -30 34
-30 29z"/>
<path d="M1712 2565 c-17 -37 -14 -45 4 -12 9 16 14 31 11 33 -2 2 -9 -7 -15
-21z"/>
<path d="M1225 2518 c-59 -32 -106 -100 -118 -168 -11 -60 4 -68 59 -34 57 35
86 86 92 161 5 55 1 60 -33 41z"/>
<path d="M3742 2472 c3 -32 13 -73 22 -90 15 -30 93 -92 115 -92 18 0 12 88
-8 128 -24 45 -66 87 -105 102 l-29 11 5 -59z"/>
<path d="M890 2482 c1 -37 24 -99 47 -124 23 -26 81 -63 111 -70 17 -5 22 -2
22 14 0 77 -70 173 -142 195 -37 11 -38 11 -38 -15z"/>
<path d="M3320 2499 c0 -8 7 -24 15 -35 18 -24 19 -7 0 26 -9 16 -14 19 -15 9z"/>
<path d="M4072 2496 c-75 -26 -142 -112 -142 -183 0 -27 3 -30 23 -25 34 8 92
47 116 78 23 29 44 95 39 123 -3 16 -7 17 -36 7z"/>
<path d="M1675 2479 c-4 -12 -3 -25 3 -31 6 -6 11 1 14 21 5 35 -7 42 -17 10z"/>
<path d="M1206 2287 c-56 -57 -80 -143 -57 -200 6 -17 9 -17 41 5 62 41 107
162 84 222 -10 25 -24 19 -68 -27z"/>
<path d="M3726 2314 c-27 -71 23 -192 95 -230 25 -12 27 -12 33 9 17 65 -16
162 -73 210 -38 31 -47 33 -55 11z"/>
<path d="M915 2209 c22 -62 79 -116 139 -134 67 -20 69 -20 62 15 -14 74 -96
149 -173 158 l-43 5 15 -44z"/>
<path d="M4001 2233 c-51 -25 -99 -77 -112 -123 -7 -22 -10 -43 -6 -46 3 -3
30 1 60 10 74 21 147 102 147 162 0 19 -46 18 -89 -3z"/>
<path d="M1273 2118 c-49 -54 -71 -140 -53 -207 6 -22 14 -41 19 -41 12 0 57
52 75 87 25 51 17 183 -12 183 -5 0 -18 -10 -29 -22z"/>
<path d="M3680 2115 c-15 -40 -12 -122 6 -158 21 -40 72 -99 78 -89 14 24 25
97 20 132 -7 43 -59 131 -81 138 -7 2 -17 -8 -23 -23z"/>
<path d="M967 1994 c29 -82 112 -144 191 -144 52 0 54 13 10 71 -40 51 -94 81
-159 87 -45 4 -49 3 -42 -14z"/>
<path d="M3937 2000 c-57 -17 -137 -97 -137 -137 0 -20 78 -16 125 7 39 19 93
80 108 123 5 14 1 17 -31 16 -20 0 -50 -5 -65 -9z"/>
<path d="M2110 2944 c0 -6 7 -19 15 -30 8 -10 14 -14 14 -9 0 6 -6 19 -14 29
-8 11 -15 15 -15 10z"/>
<path d="M2017 2906 c-4 -9 3 -16 19 -20 29 -8 44 -1 44 20 0 19 -56 19 -63 0z"/>
<path d="M2247 2899 c4 -13 8 -18 11 -10 2 7 -1 18 -6 23 -8 8 -9 4 -5 -13z"/>
<path d="M1929 2893 c-29 -35 -41 -53 -36 -53 2 0 17 16 31 35 28 36 31 49 5
18z"/>
<path d="M2211 2893 c-1 -12 4 -25 9 -28 12 -7 12 2 0 30 -8 19 -9 19 -9 -2z"/>
<path d="M2295 2890 c9 -31 25 -50 25 -29 0 7 -8 23 -16 34 -16 19 -16 19 -9
-5z"/>
<path d="M2180 2870 c0 -5 5 -10 11 -10 5 0 7 5 4 10 -3 6 -8 10 -11 10 -2 0
-4 -4 -4 -10z"/>
<path d="M2340 2861 c0 -5 5 -13 10 -16 6 -3 10 -2 10 4 0 5 -4 13 -10 16 -5
3 -10 2 -10 -4z"/>
<path d="M2394 2848 c3 -15 26 -23 26 -8 0 6 -4 9 -9 6 -5 -4 -12 -1 -14 4 -3
6 -4 5 -3 -2z"/>
<path d="M3020 2844 c-9 -10 -10 -18 -2 -26 12 -12 32 -2 32 17 0 21 -16 26
-30 9z"/>
<path d="M2627 2829 c7 -7 15 -10 18 -7 3 3 -2 9 -12 12 -14 6 -15 5 -6 -5z"/>
<path d="M2870 2805 c-16 -19 -5 -47 17 -43 23 4 31 58 10 58 -8 0 -20 -7 -27
-15z"/>
<path d="M2483 2799 c-15 -15 -4 -49 17 -49 20 0 32 23 24 45 -7 18 -26 19
-41 4z"/>
<path d="M2205 2770 c-8 -26 6 -43 31 -38 13 2 19 12 19 28 0 34 -40 41 -50
10z m35 -9 c0 -6 -4 -13 -10 -16 -5 -3 -10 1 -10 9 0 9 5 16 10 16 6 0 10 -4
10 -9z"/>
<path d="M2856 2653 c-6 -14 -5 -15 5 -6 7 7 10 15 7 18 -3 3 -9 -2 -12 -12z"/>
<path d="M2529 2623 c-13 -16 -12 -17 4 -4 9 7 17 15 17 17 0 8 -8 3 -21 -13z"/>
<path d="M1875 2660 c-3 -5 -3 -10 1 -10 4 0 -3 -12 -17 -27 l-24 -28 30 25
c17 14 35 28 40 33 6 4 1 5 -9 1 -13 -5 -17 -4 -12 4 4 7 5 12 2 12 -3 0 -8
-4 -11 -10z"/>
<path d="M3088 2589 c5 -36 47 -46 64 -15 10 19 9 19 -5 8 -13 -11 -16 -10
-19 9 -2 14 -11 23 -24 24 -16 1 -19 -3 -16 -26z"/>
<path d="M1970 2529 c-15 -27 -6 -49 19 -49 27 0 47 36 30 56 -16 20 -36 17
-49 -7z m26 -26 c-10 -10 -19 5 -10 18 6 11 8 11 12 0 2 -7 1 -15 -2 -18z"/>
<path d="M2095 2540 c-3 -5 -2 -10 4 -10 5 0 13 5 16 10 3 6 2 10 -4 10 -5 0
-13 -4 -16 -10z"/>
<path d="M2915 2530 c-8 -25 1 -40 24 -40 24 0 45 25 37 45 -8 23 -53 19 -61
-5z m40 -10 c-3 -5 -12 -10 -18 -10 -7 0 -6 4 3 10 19 12 23 12 15 0z"/>
<path d="M3199 2493 c-13 -16 -12 -17 4 -4 16 13 21 21 13 21 -2 0 -10 -8 -17
-17z"/>
<path d="M1990 2380 c-9 -16 -9 -25 -1 -33 16 -16 46 4 46 29 0 27 -31 29 -45
4z m30 -4 c0 -3 -4 -8 -10 -11 -5 -3 -10 -1 -10 4 0 6 5 11 10 11 6 0 10 -2
10 -4z"/>
<path d="M2156 2358 c3 -5 10 -6 15 -3 13 9 11 12 -6 12 -8 0 -12 -4 -9 -9z"/>
<path d="M2395 1831 c-52 -13 -72 -29 -95 -76 -59 -122 38 -232 180 -205 29 5
54 10 56 10 2 0 4 15 4 34 0 34 0 35 -32 25 -87 -25 -148 5 -148 71 0 31 5 43
26 56 25 17 94 22 133 9 19 -6 21 -2 21 29 0 24 -5 36 -17 40 -39 10 -100 14
-128 7z"/>
<path d="M2606 1803 c-3 -15 -8 -78 -11 -139 l-7 -111 84 -6 c139 -11 138 -11
138 23 0 30 -1 30 -54 30 -67 0 -86 7 -86 31 0 16 8 19 55 19 54 0 55 0 55 30
0 26 -4 30 -27 30 -49 0 -73 11 -73 33 0 18 5 19 69 15 68 -5 70 -5 76 20 3
14 2 28 -2 32 -4 4 -54 11 -110 14 l-101 7 -6 -28z"/>
<path d="M2041 1798 l-53 -10 6 -36 c3 -21 11 -81 18 -134 l12 -98 39 0 38 0
-6 55 c-7 51 -6 55 13 55 14 0 30 -15 48 -45 22 -39 30 -45 59 -45 19 0 36 4
39 8 3 4 -9 29 -26 55 -28 43 -29 50 -18 77 16 39 5 95 -23 115 -24 17 -65 18
-146 3z m99 -77 c0 -11 -9 -21 -22 -25 -35 -9 -38 -8 -38 19 0 21 5 25 30 25
23 0 30 -5 30 -19z"/>
<path d="M2896 1778 c-3 -13 -12 -63 -21 -113 -8 -49 -17 -100 -20 -111 -5
-20 2 -23 103 -42 59 -11 108 -19 109 -18 1 1 4 17 5 36 l3 34 -62 11 c-34 5
-65 13 -68 17 -4 3 1 45 10 93 9 48 14 94 11 101 -3 8 -19 14 -35 14 -24 0
-32 -5 -35 -22z"/>
<path d="M1731 1733 c-91 -45 -95 -190 -7 -248 32 -21 101 -22 148 -2 97 41
106 192 15 247 -40 25 -110 26 -156 3z m114 -68 c48 -47 22 -135 -40 -135 -73
0 -100 123 -33 150 36 14 47 12 73 -15z"/>
<path d="M3160 1693 c-6 -32 -20 -87 -31 -122 -23 -75 -24 -91 -5 -91 8 0 53
-11 102 -25 93 -27 104 -25 104 21 0 17 -10 23 -54 34 -83 20 -81 15 -52 121
14 51 22 96 18 100 -4 4 -21 10 -39 14 l-31 6 -12 -58z"/>
<path d="M3415 1593 c-15 -43 -36 -99 -46 -125 -23 -57 -23 -54 -1 -61 9 -3
55 -19 102 -36 63 -22 86 -27 92 -18 19 30 7 45 -52 67 -43 16 -60 28 -60 41
0 27 15 31 56 14 47 -20 49 -19 62 9 10 22 8 25 -39 45 -46 19 -49 22 -39 41
6 12 17 20 23 17 131 -46 120 -45 131 -9 6 16 3 24 -11 28 -10 3 -52 19 -94
35 -42 16 -80 29 -86 29 -6 0 -23 -35 -38 -77z"/>
<path d="M1422 1632 c-71 -27 -72 -27 -66 -57 8 -39 73 -208 84 -219 13 -13
139 33 173 63 26 24 29 32 23 64 -4 21 -17 44 -31 56 -15 11 -25 29 -25 45 0
31 -41 76 -67 75 -10 0 -51 -12 -91 -27z m85 -58 c6 -17 -20 -44 -43 -44 -19
0 -29 41 -13 51 22 14 49 10 56 -7z m53 -103 c0 -20 -54 -46 -71 -35 -16 9
-10 42 9 47 41 11 62 7 62 -12z"/>
<path d="M2073 1153 c-17 -6 -16 -50 1 -56 17 -7 36 11 36 34 0 18 -18 29 -37
22z"/>
<path d="M2715 1160 c-4 -7 -3 -16 3 -22 14 -14 45 -2 40 15 -6 16 -34 21 -43
7z"/>
<path d="M2265 1129 c-5 -13 -2 -25 6 -30 18 -11 49 8 49 31 0 29 -46 27 -55
-1z"/>
</g>
</svg>
